<?xml version="1.0" standalone="no"?>
<!DOCTYPE svg PUBLIC "-//W3C//DTD SVG 20010904//EN"
 "http://www.w3.org/TR/2001/REC-SVG-20010904/DTD/svg10.dtd">
<svg version="1.0" xmlns="http://www.w3.org/2000/svg"
 width="1056.000000pt" height="1056.000000pt" viewBox="0 0 1056.000000 1056.000000"
 preserveAspectRatio="xMidYMid meet">
<metadata>
Created by potrace 1.14, written by Peter Selinger 2001-2017
</metadata>
<g transform="translate(0.000000,1056.000000) scale(0.100000,-0.100000)"
fill="#000000" stroke="none">
<path d="M5228 8620 c-65 -11 -142 -56 -191 -111 -23 -25 -117 -176 -209 -335
-91 -159 -357 -620 -591 -1024 -233 -404 -837 -1450 -1342 -2325 -505 -875
-1008 -1745 -1118 -1935 -249 -429 -292 -511 -307 -585 -29 -141 42 -280 178
-343 l57 -27 3570 0 3570 0 55 26 c74 34 120 76 155 141 26 46 30 63 30 133 0
133 55 26 -612 1180 -283 491 -1035 1793 -1816 3145 -192 333 -516 895 -720
1249 -255 442 -387 661 -421 698 -56 62 -114 99 -171 108 -22 4 -47 8 -55 10
-8 1 -36 -1 -62 -5z m85 -312 c14 -18 219 -370 457 -783 238 -412 493 -854
566 -980 73 -127 136 -238 139 -246 5 -13 -709 -815 -3305 -3709 l-336 -375
-531 0 c-395 0 -535 3 -544 12 -6 6 -9 22 -6 35 7 24 73 139 1507 2623 486
842 1128 1953 1426 2470 298 517 552 950 563 963 26 29 36 28 64 -10z"/>
</g>
</svg>
