<svg xmlns="http://www.w3.org/2000/svg" version="1.1" xmlns:xlink="http://www.w3.org/1999/xlink" xmlns:svgjs="http://svgjs.com/svgjs" width="816" height="1056"><svg xmlns:dc="http://purl.org/dc/elements/1.1/" xmlns:cc="http://creativecommons.org/ns#" xmlns:rdf="http://www.w3.org/1999/02/22-rdf-syntax-ns#" xmlns:svg="http://www.w3.org/2000/svg" xmlns="http://www.w3.org/2000/svg" viewBox="0 0 816 1056" height="1056" width="816" xml:space="preserve" id="SvgjsSvg1011" version="1.1"><metadata id="SvgjsMetadata1010"><rdf:rdf><cc:work rdf:about=""><dc:format>image/svg+xml</dc:format><dc:type rdf:resource="http://purl.org/dc/dcmitype/StillImage"></dc:type></cc:work></rdf:rdf></metadata><defs id="SvgjsDefs1009"><clipPath id="SvgjsClipPath1008" clipPathUnits="userSpaceOnUse"><path style="clip-rule:evenodd" id="SvgjsPath1007" d="m 2269.9369,1762.4701 c 7.4183,-12.8497 1.404,-23.2664 -13.4336,-23.267 h -517.4529 c -14.8376,6e-4 -20.8519,10.4173 -13.4337,23.267 l 258.7266,448.1162 c 7.4193,12.8491 19.4478,12.8491 26.8671,0 z"></path></clipPath></defs><g transform="matrix(1.3333333,0,0,-1.3333333,0,1056)" id="SvgjsG1006"><g transform="translate(-1692,-1584)" id="SvgjsG1005"><path id="SvgjsPath1004" style="fill:#231f20;fill-opacity:1;fill-rule:evenodd;stroke:none" d="m 2269.9369,1762.4701 c 7.4183,-12.8497 1.404,-23.2664 -13.4336,-23.267 h -517.4529 c -14.8376,6e-4 -20.8519,10.4173 -13.4337,23.267 l 258.7266,448.1162 c 7.4193,12.8491 19.4478,12.8491 26.8671,0 z"></path><g id="SvgjsG1003"><g clip-path="url(#clipPath22)" id="SvgjsG1002"><path id="SvgjsPath1001" style="fill:#ffffff;fill-opacity:1;fill-rule:evenodd;stroke:none" d="m 1772.7239,1703.4272 432.7166,482.9331 -178.9272,190.5158 -461.4529,-520.1177 147.5381,-177.7198 z"></path></g></g><path id="SvgjsPath1000" style="fill:none;stroke:#231f20;stroke-width:21.48920059;stroke-linecap:round;stroke-linejoin:round;stroke-miterlimit:3.86360002;stroke-dasharray:none;stroke-opacity:1" d="m 2269.9369,1762.4701 c 7.4183,-12.8497 1.404,-23.2664 -13.4336,-23.267 h -517.4529 c -14.8376,6e-4 -20.8519,10.4173 -13.4337,23.267 l 258.7266,448.1162 c 7.4193,12.8491 19.4478,12.8491 26.8671,0 z"></path></g></g></svg><style>@media (prefers-color-scheme: light) { :root { filter: none; } }
</style></svg>