<?xml version="1.0" encoding="UTF-8" standalone="no"?>
<svg
   xmlns:dc="http://purl.org/dc/elements/1.1/"
   xmlns:cc="http://creativecommons.org/ns#"
   xmlns:rdf="http://www.w3.org/1999/02/22-rdf-syntax-ns#"
   xmlns:svg="http://www.w3.org/2000/svg"
   xmlns="http://www.w3.org/2000/svg"
   viewBox="0 0 202.66667 78.666664"
   height="78.666664"
   width="202.66667"
   xml:space="preserve"
   id="svg2"
   version="1.1"><metadata
     id="metadata8"><rdf:RDF><cc:Work
         rdf:about=""><dc:format>image/svg+xml</dc:format><dc:type
           rdf:resource="http://purl.org/dc/dcmitype/StillImage" /></cc:Work></rdf:RDF></metadata><defs
     id="defs6" /><g
     transform="matrix(1.3333333,0,0,-1.3333333,0,78.666667)"
     id="g10"><g
       transform="translate(-1692,-1584)"
       id="g12"><path
         id="path14"
         style="fill:#fab20b;fill-opacity:1;fill-rule:evenodd;stroke:none"
         d="m 1707.0102,1593.7624 v 39.1715 h 13.5177 c 2.5644,0 4.7542,-0.2438 6.5692,-0.7315 1.815,-0.4876 3.3049,-1.1829 4.4697,-2.0858 1.1649,-0.903 2.0182,-1.9956 2.56,-3.2779 0.5418,-1.2822 0.8127,-2.727 0.8127,-4.3343 0,-0.921 -0.1355,-1.8015 -0.4063,-2.6412 -0.271,-0.8398 -0.6908,-1.6254 -1.2597,-2.3568 -0.5689,-0.7314 -1.2913,-1.3951 -2.1672,-1.9911 -0.8759,-0.596 -1.9188,-1.1017 -3.1288,-1.517 5.3818,-1.21 8.0727,-4.1176 8.0727,-8.7229 0,-1.6614 -0.3161,-3.1965 -0.9482,-4.6052 -0.6321,-1.4086 -1.5531,-2.6231 -2.7631,-3.6435 -1.21,-1.0204 -2.6999,-1.8195 -4.4698,-2.3974 -1.7698,-0.578 -3.7925,-0.8669 -6.068,-0.8669 z m 7.2871,17.1748 v -11.486 h 7.3954 c 1.3545,0 2.4877,0.1625 3.3997,0.4876 0.9121,0.3251 1.6435,0.7585 2.1943,1.3003 0.5508,0.5418 0.9481,1.1739 1.1919,1.8963 0.2438,0.7224 0.3657,1.4899 0.3657,2.3026 0,0.8488 -0.1354,1.6118 -0.4063,2.289 -0.2709,0.6773 -0.6953,1.2552 -1.2732,1.7338 -0.5779,0.4786 -1.3184,0.8443 -2.2214,1.0971 -0.9029,0.2528 -1.9955,0.3793 -3.2778,0.3793 z m 0,5.0386 h 5.8242 c 2.4742,0 4.3524,0.4515 5.6346,1.3545 1.2823,0.903 1.9234,2.3387 1.9234,4.3072 0,2.0408 -0.5779,3.4946 -1.7337,4.3614 -1.1559,0.8669 -2.9618,1.3003 -5.4179,1.3003 h -6.2306 z" /><path
         id="path16"
         style="fill:#fab20b;fill-opacity:1;fill-rule:evenodd;stroke:none"
         d="m 1765.3636,1632.9339 v -5.7972 h -17.3644 v -10.8358 h 13.6802 v -5.6346 h -13.6802 v -11.0526 h 17.3644 v -5.8513 h -24.7056 v 39.1715 z" /><path
         id="path18"
         style="fill:#fab20b;fill-opacity:1;fill-rule:evenodd;stroke:none"
         d="m 1799.2216,1632.988 v -6.0138 h -11.784 v -33.1847 h -7.2871 v 33.1847 h -11.8381 v 6.0138 z" /><path
         id="path20"
         style="fill:#fab20b;fill-opacity:1;fill-rule:evenodd;stroke:none"
         d="m 1832.3167,1593.7624 h -5.6346 c -0.6321,0 -1.1513,0.158 -1.5577,0.4741 -0.4063,0.316 -0.6998,0.7088 -0.8804,1.1784 l -2.9256,7.9914 h -16.2267 l -2.9256,-7.9914 c -0.1445,-0.4154 -0.429,-0.7947 -0.8534,-1.1378 -0.4244,-0.3431 -0.9436,-0.5147 -1.5576,-0.5147 h -5.6617 l 15.3868,39.1715 h 7.4497 z m -25.3558,14.7638 h 12.4883 l -4.7678,13.0301 c -0.2167,0.5779 -0.456,1.2596 -0.7179,2.0452 -0.2618,0.7856 -0.5192,1.6389 -0.772,2.56 -0.2528,-0.9211 -0.5012,-1.7789 -0.745,-2.5735 -0.2438,-0.7947 -0.4831,-1.49 -0.7178,-2.0859 z" /><path
         id="path22"
         style="fill:#fab20b;fill-opacity:1;fill-rule:nonzero;stroke:none"
         d="m 1703.2171,1642.4696 h 129.305 c 6.3513,0 11.5,-5.1487 11.5,-11.5 v -36 c 0,-6.3513 -5.1487,-11.5 -11.5,-11.5 h -129.305 c -6.3513,0 -11.5,5.1487 -11.5,11.5 v 36 c 0,6.3513 5.1487,11.5 11.5,11.5 z m 0,-3 c -4.6945,0 -8.5,-3.8055 -8.5,-8.5 v -36 c 0,-4.6945 3.8055,-8.5 8.5,-8.5 h 129.305 c 4.6945,0 8.5,3.8055 8.5,8.5 v 36 c 0,4.6945 -3.8055,8.5 -8.5,8.5 z" /></g></g></svg>