<?xml version="1.0" encoding="UTF-8"?>
<svg version="1.1" viewBox="0 0 816 1056" xml:space="preserve" xmlns="http://www.w3.org/2000/svg" xmlns:cc="http://creativecommons.org/ns#" xmlns:dc="http://purl.org/dc/elements/1.1/" xmlns:rdf="http://www.w3.org/1999/02/22-rdf-syntax-ns#"><metadata><rdf:RDF><cc:Work rdf:about=""><dc:format>image/svg+xml</dc:format><dc:type rdf:resource="http://purl.org/dc/dcmitype/StillImage"/></cc:Work></rdf:RDF></metadata><defs><clipPath id="a"><path d="m2099.1 1964.6c2.7615-4.7834 0.5226-8.6611-5.0007-8.6613h-192.62c-5.5233 2e-4 -7.7622 3.8779-5.0007 8.6613l96.311 166.82c2.7618 4.7832 7.2394 4.7832 10.001 0z" clip-rule="evenodd"/></clipPath></defs><g transform="matrix(1.3333 0 0 -1.3333 0 1056)"><g transform="translate(-1692,-1584)"><path d="m2099.1 1964.6c2.7615-4.7834 0.5226-8.6611-5.0007-8.6613h-192.62c-5.5233 2e-4 -7.7622 3.8779-5.0007 8.6613l96.311 166.82c2.7618 4.7832 7.2394 4.7832 10.001 0z" fill="#231f20" fill-rule="evenodd"/><g clip-path="url(#a)"><path d="m1914 1942.7 161.08 179.78-66.606 70.921-171.78-193.62 54.921-66.158z" fill="#fff" fill-rule="evenodd"/></g><path d="m2099.1 1964.6c2.7615-4.7834 0.5226-8.6611-5.0007-8.6613h-192.62c-5.5233 2e-4 -7.7622 3.8779-5.0007 8.6613l96.311 166.82c2.7618 4.7832 7.2394 4.7832 10.001 0z" fill="none" stroke="#231f20" stroke-linecap="round" stroke-linejoin="round" stroke-miterlimit="3.8636" stroke-width="8"/><path d="m1862.5 1833.4h-1.422c-0.168 0-0.306 0.045-0.414 0.135s-0.192 0.207-0.252 0.351l-3.006 7.398h-12.51l-2.988-7.398c-0.048-0.132-0.132-0.246-0.252-0.342s-0.264-0.144-0.432-0.144h-1.404l10.422 25.488h1.836zm-17.046 9.216h11.412l-5.202 12.87c-0.084 0.204-0.168 0.435-0.252 0.693s-0.168 0.531-0.252 0.819c-0.084-0.288-0.168-0.561-0.252-0.819s-0.168-0.495-0.252-0.711z" fill="#231f20" fill-rule="evenodd"/><path d="m1877.8 1844.9v-11.52h-1.836v25.488h6.498c2.94 0 5.136-0.5674 6.588-1.7021 1.452-1.1348 2.178-2.8009 2.178-4.9984 0-0.9728-0.168-1.8614-0.504-2.666s-0.819-1.5101-1.449-2.1167c-0.63-0.6065-1.389-1.1049-2.277-1.4951s-1.89-0.6453-3.006-0.7653c0.2887-0.1804 0.5475-0.4205 0.7762-0.7205l8.7818-11.024h-1.602c-0.192 0-0.357 0.036-0.495 0.108s-0.273 0.192-0.405 0.36l-8.1653 10.332c-0.204 0.264-0.4232 0.45-0.6575 0.558-0.2344 0.108-0.598 0.162-1.0907 0.162zm0 1.332h4.428c1.128 0 2.139 0.1354 3.033 0.4064 0.894 0.2709 1.65 0.6591 2.268 1.1646s1.089 1.1135 1.413 1.8239c0.324 0.7105 0.486 1.511 0.486 2.4016 0 1.818-0.594 3.1664-1.782 4.0453-1.188 0.8788-2.916 1.3182-5.184 1.3182h-4.662z" fill="#231f20" fill-rule="evenodd"/><path d="m1923.7 1858.9v-1.584h-8.946v-23.904h-1.836v23.904h-9v1.584z" fill="#231f20" fill-rule="evenodd"/><path d="m1966 1855.8c-0.108-0.204-0.264-0.306-0.468-0.306-0.156 0-0.357 0.111-0.603 0.333s-0.579 0.468-0.999 0.738-0.945 0.519-1.575 0.747-1.407 0.342-2.331 0.342-1.737-0.132-2.439-0.396-1.29-0.624-1.764-1.08-0.834-0.984-1.08-1.584-0.369-1.23-0.369-1.89c0-0.864 0.183-1.578 0.549-2.142s0.849-1.044 1.449-1.44 1.281-0.729 2.043-0.999 1.545-0.537 2.349-0.801 1.587-0.555 2.349-0.873 1.443-0.717 2.043-1.197 1.083-1.071 1.449-1.773 0.549-1.575 0.549-2.619c0-1.068-0.1828-2.073-0.5485-3.015-0.3656-0.942-0.8959-1.761-1.591-2.457s-1.5459-1.245-2.5526-1.647-2.1573-0.603-3.4518-0.603c-1.6781 0-3.1224 0.3-4.3329 0.9s-2.2716 1.416-3.1832 2.448l0.504 0.792c0.144 0.18 0.312 0.27 0.504 0.27 0.108 0 0.2458-0.072 0.4134-0.216s0.3714-0.321 0.6112-0.531 0.5274-0.438 0.8629-0.684c0.3354-0.246 0.7248-0.474 1.1683-0.684 0.4434-0.21 0.9527-0.387 1.528-0.531 0.5752-0.144 1.2283-0.216 1.9592-0.216 1.0065 0 1.9052 0.153 2.696 0.459 0.7909 0.306 1.459 0.723 2.0042 1.251 0.5453 0.528 0.9617 1.155 1.2493 1.881 0.2877 0.726 0.4315 1.503 0.4315 2.331 0 0.9-0.183 1.641-0.549 2.223s-0.849 1.068-1.449 1.458-1.281 0.717-2.043 0.981-1.545 0.522-2.349 0.774-1.587 0.534-2.349 0.846-1.443 0.711-2.043 1.197-1.083 1.092-1.449 1.818-0.549 1.635-0.549 2.727c0 0.852 0.162 1.674 0.486 2.466s0.798 1.491 1.422 2.097 1.395 1.092 2.313 1.458 1.965 0.549 3.141 0.549c1.32 0 2.505-0.2125 3.555-0.6373 1.05-0.4249 2.007-1.0705 2.871-1.9367z" fill="#231f20" fill-rule="evenodd"/><path d="m1998.5 1858.9v-1.584h-8.946v-23.904h-1.836v23.904h-9v1.584z" fill="#231f20" fill-rule="evenodd"/><path d="m2020.9 1834.7c1.2225 0 2.3162 0.2133 3.281 0.6398 0.9649 0.4266 1.783 1.0184 2.4542 1.7756 0.6713 0.7571 1.1837 1.6495 1.5373 2.6772 0.3537 1.0277 0.5305 2.1363 0.5305 3.3258v15.774h1.836v-15.772c0-1.4058-0.222-2.7186-0.666-3.9383s-1.083-2.2832-1.917-3.1905-1.848-1.6193-3.042-2.1361c-1.194-0.5167-2.535-0.7751-4.023-0.7751s-2.829 0.2584-4.023 0.7751c-1.194 0.5168-2.208 1.2288-3.042 2.1361s-1.473 1.9708-1.917 3.1905-0.666 2.5325-0.666 3.9383v15.772h1.872v-15.756c0-1.1895 0.1768-2.298 0.5304-3.3257s0.8631-1.9201 1.5283-2.6772c0.6653-0.7572 1.4803-1.352 2.4452-1.7846 0.9649-0.4325 2.0586-0.6488 3.2811-0.6488z" fill="#231f20" fill-rule="evenodd"/><path d="m2068.6 1846.1c0-1.9695-0.2937-3.7408-0.8812-5.314-0.5874-1.5731-1.4148-2.912-2.482-4.0168-1.0672-1.1047-2.3442-1.9513-3.8309-2.5397-1.4867-0.5883-3.1353-0.8825-4.9458-0.8825h-9.2801v25.488h9.2801c1.8105 0 3.4591-0.2942 4.9458-0.8826s2.7637-1.4349 3.8309-2.5397c1.0672-1.1047 1.8946-2.4437 2.482-4.0168 0.5875-1.5731 0.8812-3.3384 0.8812-5.2959zm-1.908 0c0 1.7745-0.2455 3.3572-0.7366 4.748-0.4911 1.3909-1.1827 2.566-2.0748 3.5252-0.8921 0.9593-1.9669 1.6907-3.2242 2.1943-1.2574 0.5037-2.6526 0.7555-4.1856 0.7555h-7.4188v-22.464h7.4188c1.533 0 2.9282 0.2518 4.1856 0.7554 1.2573 0.5036 2.3321 1.2351 3.2242 2.1943 0.8921 0.9593 1.5837 2.1343 2.0748 3.5252s0.7366 2.9796 0.7366 4.7661z" fill="#231f20" fill-rule="evenodd"/><path d="m2086.1 1833.4h-1.872v25.488h1.872z" fill="#231f20" fill-rule="evenodd"/><path d="m2125.7 1846.1c0-1.9707-0.2938-3.7581-0.8815-5.3623-0.5876-1.6043-1.4149-2.9742-2.482-4.1097s-2.3441-2.0127-3.8312-2.6316c-1.4871-0.619-3.1358-0.9284-4.9463-0.9284-1.7865 0-3.4233 0.3094-4.9104 0.9284-1.487 0.6189-2.7641 1.4961-3.8312 2.6316-1.067 1.1355-1.8974 2.5054-2.491 4.1097-0.5936 1.6042-0.8904 3.3916-0.8904 5.3623 0 1.9586 0.2968 3.74 0.8904 5.3443 0.5936 1.6042 1.424 2.9741 2.491 4.1096 1.0671 1.1355 2.3442 2.0157 3.8312 2.6407 1.4871 0.6249 3.1239 0.9374 4.9104 0.9374 1.8105 0 3.4592-0.3095 4.9463-0.9284 1.4871-0.619 2.7641-1.4992 3.8312-2.6407s1.8944-2.5144 2.482-4.1186c0.5877-1.6043 0.8815-3.3857 0.8815-5.3443zm-1.908 0.01c0 1.7775-0.2456 3.3748-0.7366 4.7919-0.4911 1.4171-1.1829 2.6181-2.0754 3.6028-0.8925 0.9848-1.9676 1.7383-3.2254 2.2607-1.2577 0.5224-2.6533 0.7836-4.1866 0.7836-1.5094 0-2.89-0.2612-4.1417-0.7836-1.2518-0.5224-2.3299-1.2759-3.2344-2.2607-0.9045-0.9847-1.6053-2.1857-2.1023-3.6028-0.4971-1.4171-0.7456-3.0144-0.7456-4.7919 0-1.7895 0.2485-3.3898 0.7456-4.801 0.497-1.4111 1.1978-2.609 2.1023-3.5938 0.9045-0.9847 1.9826-1.7353 3.2344-2.2517 1.2517-0.5163 2.6323-0.7745 4.1417-0.7745 1.5333 0 2.9289 0.2582 4.1866 0.7745 1.2578 0.5164 2.3329 1.267 3.2254 2.2517 0.8925 0.9848 1.5843 2.1827 2.0754 3.5938 0.491 1.4112 0.7366 3.0115 0.7366 4.801z" fill="#231f20" fill-rule="evenodd"/><path d="m2153.3 1855.8c-0.108-0.204-0.264-0.306-0.468-0.306-0.156 0-0.357 0.111-0.603 0.333s-0.579 0.468-0.999 0.738-0.945 0.519-1.575 0.747-1.407 0.342-2.331 0.342-1.737-0.132-2.439-0.396-1.29-0.624-1.764-1.08-0.834-0.984-1.08-1.584-0.369-1.23-0.369-1.89c0-0.864 0.183-1.578 0.549-2.142s0.849-1.044 1.449-1.44 1.281-0.729 2.043-0.999 1.545-0.537 2.349-0.801 1.587-0.555 2.349-0.873 1.443-0.717 2.043-1.197 1.083-1.071 1.449-1.773 0.549-1.575 0.549-2.619c0-1.068-0.1828-2.073-0.5484-3.015-0.3657-0.942-0.896-1.761-1.5911-2.457-0.695-0.696-1.5459-1.245-2.5526-1.647s-2.1573-0.603-3.4518-0.603c-1.6781 0-3.1224 0.3-4.3329 0.9s-2.2716 1.416-3.1832 2.448l0.504 0.792c0.144 0.18 0.312 0.27 0.504 0.27 0.108 0 0.2458-0.072 0.4134-0.216 0.1677-0.144 0.3714-0.321 0.6112-0.531s0.5274-0.438 0.8629-0.684c0.3354-0.246 0.7248-0.474 1.1683-0.684 0.4434-0.21 0.9528-0.387 1.528-0.531 0.5753-0.144 1.2283-0.216 1.9592-0.216 1.0065 0 1.9052 0.153 2.6961 0.459 0.7908 0.306 1.4589 0.723 2.0041 1.251 0.5453 0.528 0.9617 1.155 1.2494 1.881 0.2876 0.726 0.4314 1.503 0.4314 2.331 0 0.9-0.183 1.641-0.549 2.223s-0.849 1.068-1.449 1.458-1.281 0.717-2.043 0.981-1.545 0.522-2.349 0.774-1.587 0.534-2.349 0.846-1.443 0.711-2.043 1.197-1.083 1.092-1.449 1.818-0.549 1.635-0.549 2.727c0 0.852 0.162 1.674 0.486 2.466s0.798 1.491 1.422 2.097 1.395 1.092 2.313 1.458 1.965 0.549 3.141 0.549c1.32 0 2.505-0.2125 3.555-0.6373 1.05-0.4249 2.007-1.0705 2.871-1.9367z" fill="#231f20" fill-rule="evenodd"/><path d="m1835.7 1892.8c0.307-0.5779 0.5915-1.1784 0.8533-1.8015 0.2619-0.623 0.5193-1.2506 0.7721-1.8827 0.2528 0.6502 0.5147 1.2913 0.7856 1.9234s0.5598 1.2371 0.8668 1.815l11.594 21.699c0.1444 0.2709 0.2934 0.4876 0.447 0.6502 0.1535 0.1625 0.325 0.2799 0.5146 0.3521 0.1897 0.072 0.4019 0.1174 0.6367 0.1355 0.2347 0.018 0.5147 0.027 0.8397 0.027h5.4992v-39.172h-6.4202v25.302c0 0.4696 0.014 0.9843 0.041 1.5441 0.027 0.5599 0.068 1.1287 0.1219 1.7067l-11.838-22.214c-0.2709-0.5056-0.6231-0.8984-1.0565-1.1784-0.4334-0.2799-0.9391-0.4199-1.517-0.4199h-1.0023c-0.5779 0-1.0836 0.14-1.517 0.4199-0.4335 0.28-0.7856 0.6728-1.0565 1.1784l-12.001 22.295c0.072-0.596 0.1219-1.1784 0.149-1.7473 0.027-0.5688 0.041-1.0971 0.041-1.5847v-25.302h-6.4202v39.172h5.4992c0.3251 0 0.605-0.01 0.8398-0.027 0.2347-0.018 0.4469-0.063 0.6366-0.1355 0.1896-0.072 0.3657-0.1896 0.5282-0.3521 0.1625-0.1626 0.3161-0.3793 0.4605-0.6502l11.703-21.753z" fill="#231f20" fill-rule="evenodd"/><path d="m1900.9 1876.5h-5.6346c-0.6321 0-1.1513 0.158-1.5577 0.474-0.4063 0.3161-0.6998 0.7089-0.8804 1.1784l-2.9257 7.9915h-16.227l-2.9257-7.9915c-0.1444-0.4153-0.4289-0.7946-0.8533-1.1377-0.4244-0.3432-0.9436-0.5147-1.5576-0.5147h-5.6617l15.387 39.172h7.4496zm-25.356 14.764h12.488l-4.7678 13.03c-0.2167 0.578-0.456 1.2597-0.7179 2.0453-0.2618 0.7856-0.5192 1.6389-0.772 2.56-0.2529-0.9211-0.5012-1.7789-0.745-2.5735-0.2438-0.7947-0.4831-1.49-0.7178-2.0859z" fill="#231f20" fill-rule="evenodd"/><path d="m1988.1 1915.7v-5.7972h-17.364v-10.836h13.68v-5.6346h-13.68v-11.053h17.364v-5.8513h-24.706v39.172z" fill="#231f20" fill-rule="evenodd"/><path d="m2001.9 1891.9v-15.306h-7.2871v39.198h11.946c2.6728 0 4.9619-0.2757 6.8672-0.8271 1.9053-0.5513 3.4675-1.3244 4.6865-2.3191s2.113-2.1836 2.6819-3.5669c0.5688-1.3833 0.8533-2.9065 0.8533-4.5697 0-1.32-0.1942-2.5677-0.5824-3.743-0.3883-1.1753-0.9482-2.242-1.6796-3.2003s-1.6344-1.7991-2.7089-2.5223c-1.0746-0.7233-2.2981-1.3019-3.6707-1.7359 0.9211-0.5237 1.7157-1.2732 2.3839-2.2484l9.8064-14.466h-6.5557c-0.6321 0-1.1693 0.1264-1.6118 0.3792-0.4424 0.2529-0.8172 0.6141-1.1242 1.0836l-8.2352 12.542c-0.307 0.4695-0.6457 0.8036-1.0159 1.0023-0.3702 0.1986-0.9165 0.298-1.6389 0.298zm0 5.2553h4.5511c1.3725 0 2.5689 0.1716 3.5893 0.5147 1.0204 0.3432 1.8602 0.8172 2.5193 1.4222 0.6592 0.605 1.1513 1.3229 1.4764 2.1536 0.3251 0.8308 0.4876 1.7428 0.4876 2.7361 0 1.9866-0.6546 3.5126-1.964 4.5781-1.3093 1.0655-3.3094 1.5983-6.0003 1.5983h-4.6594z" fill="#231f20" fill-rule="evenodd"/><path d="m1916.9 1909.8v-33.185h-7.2871v33.185h-11.838v6.0139h60.97v-6.0139h-11.784v-33.185h-7.2871v33.185z" fill="#231f20"/><path d="m2061.3 1876.5h-7.3412v17.121h-18.367v-17.121h-7.3413v39.172h7.3413v-16.85h18.367v16.85h7.3412z" fill="#231f20" fill-rule="evenodd"/><path d="m2105.7 1896.1c0-2.8715-0.4786-5.5308-1.4358-7.9778-0.9571-2.4471-2.3026-4.5646-4.0363-6.3526-1.7338-1.7879-3.8197-3.183-6.2577-4.1853-2.4381-1.0023-5.138-1.5034-8.0998-1.5034s-5.6662 0.5011-8.1133 1.5034-4.542 2.3974-6.2848 4.1853c-1.7427 1.788-3.0927 3.9055-4.0499 6.3526-0.9571 2.447-1.4357 5.1063-1.4357 7.9778s0.4786 5.5308 1.4357 7.9779c0.9572 2.4471 2.3072 4.5646 4.0499 6.3525 1.7428 1.7879 3.8377 3.183 6.2848 4.1853s5.1515 1.5035 8.1133 1.5035 5.6617-0.5057 8.0998-1.517c2.438-1.0114 4.5239-2.4065 6.2577-4.1854 1.7337-1.7788 3.0792-3.8918 4.0363-6.3389 0.9572-2.4471 1.4358-5.1064 1.4358-7.9779zm-7.4767-0.014c0 2.1468-0.2845 4.0727-0.8534 5.7777-0.5688 1.7049-1.3861 3.1528-2.4516 4.3436s-2.3613 2.102-3.8873 2.7335c-1.5261 0.6315-3.2463 0.9473-5.1606 0.9473s-3.639-0.3158-5.1741-0.9473-2.8399-1.5427-3.9144-2.7335c-1.0746-1.1908-1.9008-2.6387-2.4787-4.3436-0.5779-1.705-0.8669-3.6309-0.8669-5.7777 0-2.1469 0.289-4.0728 0.8669-5.7777 0.5779-1.705 1.4041-3.1483 2.4787-4.3301 1.0745-1.1818 2.3793-2.0885 3.9144-2.72s3.2598-0.9473 5.1741-0.9473 3.6345 0.3158 5.1606 0.9473c1.526 0.6315 2.8218 1.5382 3.8873 2.72s1.8827 2.6251 2.4516 4.3301c0.5689 1.7049 0.8534 3.6308 0.8534 5.7777z" fill="#231f20" fill-rule="evenodd"/><path d="m2118.4 1891.9v-15.306h-7.2871v39.198h11.946c2.6728 0 4.9619-0.2757 6.8672-0.8271 1.9053-0.5513 3.4675-1.3244 4.6865-2.3191s2.113-2.1836 2.6818-3.5669c0.5689-1.3833 0.8534-2.9065 0.8534-4.5697 0-1.32-0.1942-2.5677-0.5824-3.743-0.3883-1.1753-0.9482-2.242-1.6796-3.2003s-1.6344-1.7991-2.709-2.5223c-1.0745-0.7233-2.298-1.3019-3.6706-1.7359 0.9211-0.5237 1.7157-1.2732 2.3839-2.2484l9.8064-14.466h-6.5557c-0.6321 0-1.1693 0.1264-1.6118 0.3792-0.4425 0.2529-0.8172 0.6141-1.1242 1.0836l-8.2352 12.542c-0.307 0.4695-0.6457 0.8036-1.0159 1.0023-0.3702 0.1986-0.9165 0.298-1.6389 0.298zm0 5.2553h4.551c1.3726 0 2.569 0.1716 3.5894 0.5147 1.0204 0.3432 1.8602 0.8172 2.5193 1.4222 0.6592 0.605 1.1513 1.3229 1.4764 2.1536 0.3251 0.8308 0.4876 1.7428 0.4876 2.7361 0 1.9866-0.6546 3.5126-1.964 4.5781-1.3093 1.0655-3.3094 1.5983-6.0003 1.5983h-4.6594z" fill="#231f20" fill-rule="evenodd"/><path d="m2150.2 1915.7c0.3251 0 0.596-0.014 0.8127-0.041s0.4109-0.081 0.5824-0.1625c0.1716-0.081 0.3387-0.1987 0.5012-0.3522s0.3431-0.3567 0.5418-0.6095l20.561-26.196c-0.072 0.6321-0.1219 1.2506-0.149 1.8557-0.027 0.605-0.041 1.1693-0.041 1.693v23.812h6.4202v-39.172h-3.7654c-0.5779 0-1.0565 0.09-1.4357 0.2709-0.3793 0.1806-0.7495 0.5057-1.1107 0.9752l-20.48 26.087c0.054-0.5779 0.095-1.1513 0.1219-1.7202 0.027-0.5688 0.041-1.0881 0.041-1.5576v-24.056h-6.4202v39.172h3.8196z" fill="#231f20" fill-rule="evenodd"/></g></g></svg>
