<?xml version="1.0" encoding="UTF-8" standalone="no"?>
<svg
   xmlns:dc="http://purl.org/dc/elements/1.1/"
   xmlns:cc="http://creativecommons.org/ns#"
   xmlns:rdf="http://www.w3.org/1999/02/22-rdf-syntax-ns#"
   xmlns:svg="http://www.w3.org/2000/svg"
   xmlns="http://www.w3.org/2000/svg"
   viewBox="0 0 816 1056"
   height="1056"
   width="816"
   xml:space="preserve"
   id="svg2"
   version="1.1"><metadata
     id="metadata8"><rdf:RDF><cc:Work
         rdf:about=""><dc:format>image/svg+xml</dc:format><dc:type
           rdf:resource="http://purl.org/dc/dcmitype/StillImage" /></cc:Work></rdf:RDF></metadata><defs
     id="defs6"><clipPath
       id="clipPath22"
       clipPathUnits="userSpaceOnUse"><path
         style="clip-rule:evenodd"
         id="path20"
         d="m 1871.1931,1926.7411 c 1.8089,-3.1333 0.3424,-5.6733 -3.2756,-5.6734 h -126.175 c -3.6179,10e-5 -5.0845,2.5401 -3.2756,5.6734 l 63.0875,109.2676 c 1.8091,3.133 4.7421,3.133 6.5512,0 z" /></clipPath></defs><g
     transform="matrix(1.3333333,0,0,-1.3333333,0,1056)"
     id="g10"><g
       transform="translate(-1692,-1584)"
       id="g12"><path
         id="path14"
         style="fill:#656263;fill-opacity:1;fill-rule:evenodd;stroke:none"
         d="m 1871.1931,1926.7411 c 1.8089,-3.1333 0.3424,-5.6733 -3.2756,-5.6734 h -126.175 c -3.6179,10e-5 -5.0845,2.5401 -3.2756,5.6734 l 63.0875,109.2676 c 1.8091,3.133 4.7421,3.133 6.5512,0 z" /><g
         id="g16"><g
           clip-path="url(#clipPath22)"
           id="g18"><path
             id="path24"
             style="fill:#ffffff;fill-opacity:1;fill-rule:evenodd;stroke:none"
             d="m 1749.9534,1912.3442 105.513,117.7573 -43.6293,46.4549 -112.52,-126.8243 35.9755,-43.3348 z" /></g></g><path
         id="path26"
         style="fill:none;stroke:#ffffff;stroke-width:5.23990011;stroke-linecap:round;stroke-linejoin:round;stroke-miterlimit:3.86360002;stroke-dasharray:none;stroke-opacity:1"
         d="m 1871.1931,1926.7411 c 1.8089,-3.1333 0.3424,-5.6733 -3.2756,-5.6734 h -126.175 c -3.6179,10e-5 -5.0845,2.5401 -3.2756,5.6734 l 63.0875,109.2676 c 1.8091,3.133 4.7421,3.133 6.5512,0 z" /><path
         id="path28"
         style="fill:#ffffff;fill-opacity:1;fill-rule:evenodd;stroke:none"
         d="m 1936.8879,1933.9167 h -1.422 c -0.168,0 -0.306,0.045 -0.414,0.135 -0.108,0.09 -0.192,0.207 -0.252,0.351 l -3.006,7.398 h -12.51 l -2.988,-7.398 c -0.048,-0.132 -0.132,-0.246 -0.252,-0.342 -0.12,-0.096 -0.264,-0.144 -0.432,-0.144 h -1.404 l 10.422,25.488 h 1.836 z m -17.046,9.216 h 11.412 l -5.202,12.87 c -0.084,0.204 -0.168,0.435 -0.252,0.693 -0.084,0.258 -0.168,0.531 -0.252,0.819 -0.084,-0.288 -0.168,-0.561 -0.252,-0.819 -0.084,-0.258 -0.168,-0.495 -0.252,-0.711 z" /><path
         id="path30"
         style="fill:#ffffff;fill-opacity:1;fill-rule:evenodd;stroke:none"
         d="m 1952.2344,1945.4367 v -11.52 h -1.836 v 25.488 h 6.498 c 2.94,0 5.136,-0.5674 6.588,-1.7021 1.452,-1.1348 2.178,-2.8009 2.178,-4.9984 0,-0.9728 -0.168,-1.8614 -0.504,-2.666 -0.336,-0.8046 -0.819,-1.5101 -1.449,-2.1167 -0.63,-0.6065 -1.389,-1.1049 -2.277,-1.4951 -0.888,-0.3902 -1.89,-0.6453 -3.006,-0.7653 0.2888,-0.1804 0.5475,-0.4205 0.7762,-0.7206 l 8.7818,-11.0238 h -1.602 c -0.192,0 -0.357,0.036 -0.495,0.108 -0.138,0.072 -0.273,0.192 -0.405,0.36 l -8.1653,10.332 c -0.2039,0.264 -0.4231,0.45 -0.6575,0.558 -0.2344,0.108 -0.5979,0.162 -1.0907,0.162 z m 0,1.332 h 4.428 c 1.128,0 2.139,0.1354 3.033,0.4064 0.894,0.2709 1.65,0.6591 2.268,1.1646 0.618,0.5055 1.089,1.1135 1.413,1.8239 0.324,0.7105 0.486,1.511 0.486,2.4016 0,1.818 -0.594,3.1664 -1.782,4.0453 -1.188,0.8788 -2.916,1.3182 -5.184,1.3182 h -4.662 z" /><path
         id="path32"
         style="fill:#ffffff;fill-opacity:1;fill-rule:evenodd;stroke:none"
         d="m 1998.143,1959.4047 v -1.584 h -8.946 v -23.904 h -1.836 v 23.904 h -9 v 1.584 z" /><path
         id="path34"
         style="fill:#ffffff;fill-opacity:1;fill-rule:evenodd;stroke:none"
         d="m 2040.426,1956.2907 c -0.108,-0.204 -0.264,-0.306 -0.468,-0.306 -0.156,0 -0.357,0.111 -0.603,0.333 -0.246,0.222 -0.579,0.468 -0.999,0.738 -0.42,0.27 -0.945,0.519 -1.575,0.747 -0.63,0.228 -1.407,0.342 -2.331,0.342 -0.924,0 -1.737,-0.132 -2.439,-0.396 -0.702,-0.264 -1.29,-0.624 -1.764,-1.08 -0.474,-0.456 -0.834,-0.984 -1.08,-1.584 -0.246,-0.6 -0.369,-1.23 -0.369,-1.89 0,-0.864 0.183,-1.578 0.549,-2.142 0.366,-0.564 0.849,-1.044 1.449,-1.44 0.6,-0.396 1.281,-0.729 2.043,-0.999 0.762,-0.27 1.545,-0.537 2.349,-0.801 0.804,-0.264 1.587,-0.555 2.349,-0.873 0.762,-0.318 1.443,-0.717 2.043,-1.197 0.6,-0.48 1.083,-1.071 1.449,-1.773 0.366,-0.702 0.549,-1.575 0.549,-2.619 0,-1.068 -0.1828,-2.073 -0.5484,-3.015 -0.3656,-0.942 -0.896,-1.761 -1.5911,-2.457 -0.695,-0.696 -1.5459,-1.245 -2.5526,-1.647 -1.0067,-0.402 -2.1573,-0.603 -3.4518,-0.603 -1.6781,0 -3.1224,0.3 -4.3329,0.9 -1.2105,0.6 -2.2716,1.416 -3.1832,2.448 l 0.504,0.792 c 0.144,0.18 0.312,0.27 0.504,0.27 0.108,0 0.2458,-0.072 0.4135,-0.216 0.1676,-0.144 0.3713,-0.321 0.6111,-0.531 0.2398,-0.21 0.5275,-0.438 0.8629,-0.684 0.3354,-0.246 0.7249,-0.474 1.1683,-0.684 0.4434,-0.21 0.9528,-0.387 1.528,-0.531 0.5753,-0.144 1.2283,-0.216 1.9592,-0.216 1.0065,0 1.9052,0.153 2.6961,0.459 0.7909,0.306 1.4589,0.723 2.0042,1.251 0.5452,0.528 0.9617,1.155 1.2493,1.881 0.2876,0.726 0.4314,1.503 0.4314,2.331 0,0.9 -0.183,1.641 -0.549,2.223 -0.366,0.582 -0.849,1.068 -1.449,1.458 -0.6,0.39 -1.281,0.717 -2.043,0.981 -0.762,0.264 -1.545,0.522 -2.349,0.774 -0.804,0.252 -1.587,0.534 -2.349,0.846 -0.762,0.312 -1.443,0.711 -2.043,1.197 -0.6,0.486 -1.083,1.092 -1.449,1.818 -0.366,0.726 -0.549,1.635 -0.549,2.727 0,0.852 0.162,1.674 0.486,2.466 0.324,0.792 0.798,1.491 1.422,2.097 0.624,0.606 1.395,1.092 2.313,1.458 0.918,0.366 1.965,0.549 3.141,0.549 1.32,0 2.505,-0.2125 3.555,-0.6373 1.05,-0.4249 2.007,-1.0705 2.871,-1.9367 z" /><path
         id="path36"
         style="fill:#ffffff;fill-opacity:1;fill-rule:evenodd;stroke:none"
         d="m 2072.8802,1959.4047 v -1.584 h -8.946 v -23.904 h -1.836 v 23.904 h -9 v 1.584 z" /><path
         id="path38"
         style="fill:#ffffff;fill-opacity:1;fill-rule:evenodd;stroke:none"
         d="m 2095.3442,1935.2127 c 1.2225,0 2.3162,0.2133 3.2811,0.6398 0.9648,0.4266 1.7829,1.0184 2.4541,1.7755 0.6713,0.7572 1.1837,1.6496 1.5374,2.6773 0.3536,1.0277 0.5304,2.1363 0.5304,3.3258 v 15.7736 h 1.836 v -15.772 c 0,-1.4058 -0.222,-2.7186 -0.666,-3.9383 -0.444,-1.2197 -1.083,-2.2832 -1.917,-3.1905 -0.834,-0.9073 -1.848,-1.6194 -3.042,-2.1361 -1.194,-0.5167 -2.535,-0.7751 -4.023,-0.7751 -1.488,0 -2.829,0.2584 -4.023,0.7751 -1.194,0.5167 -2.208,1.2288 -3.042,2.1361 -0.834,0.9073 -1.473,1.9708 -1.917,3.1905 -0.444,1.2197 -0.666,2.5325 -0.666,3.9383 v 15.772 h 1.872 v -15.7557 c 0,-1.1895 0.1768,-2.298 0.5304,-3.3257 0.3537,-1.0277 0.8631,-1.9201 1.5283,-2.6772 0.6653,-0.7572 1.4804,-1.352 2.4452,-1.7846 0.9649,-0.4325 2.0586,-0.6488 3.2811,-0.6488 z" /><path
         id="path40"
         style="fill:#ffffff;fill-opacity:1;fill-rule:evenodd;stroke:none"
         d="m 2143.0271,1946.6697 c 0,-1.9695 -0.2937,-3.7408 -0.8811,-5.314 -0.5875,-1.5731 -1.4148,-2.912 -2.4821,-4.0168 -1.0672,-1.1047 -2.3442,-1.9513 -3.8309,-2.5397 -1.4867,-0.5883 -3.1353,-0.8825 -4.9458,-0.8825 h -9.2801 v 25.488 h 9.2801 c 1.8105,0 3.4591,-0.2942 4.9458,-0.8826 1.4867,-0.5884 2.7637,-1.4349 3.8309,-2.5397 1.0673,-1.1047 1.8946,-2.4437 2.4821,-4.0168 0.5874,-1.5731 0.8811,-3.3384 0.8811,-5.2959 z m -1.908,0 c 0,1.7745 -0.2455,3.3572 -0.7366,4.748 -0.491,1.3909 -1.1826,2.566 -2.0747,3.5252 -0.8922,0.9593 -1.9669,1.6907 -3.2243,2.1943 -1.2574,0.5037 -2.6526,0.7555 -4.1856,0.7555 h -7.4188 v -22.464 h 7.4188 c 1.533,0 2.9282,0.2518 4.1856,0.7554 1.2574,0.5036 2.3321,1.2351 3.2243,2.1943 0.8921,0.9593 1.5837,2.1343 2.0747,3.5252 0.4911,1.3909 0.7366,2.9796 0.7366,4.7661 z" /><path
         id="path42"
         style="fill:#ffffff;fill-opacity:1;fill-rule:evenodd;stroke:none"
         d="m 2160.4831,1933.9167 h -1.872 v 25.488 h 1.872 z" /><path
         id="path44"
         style="fill:#ffffff;fill-opacity:1;fill-rule:evenodd;stroke:none"
         d="m 2200.0661,1946.6607 c 0,-1.9707 -0.2938,-3.7581 -0.8814,-5.3623 -0.5877,-1.6043 -1.415,-2.9742 -2.4821,-4.1097 -1.067,-1.1355 -2.3441,-2.0127 -3.8312,-2.6316 -1.487,-0.619 -3.1358,-0.9284 -4.9463,-0.9284 -1.7865,0 -3.4233,0.3094 -4.9103,0.9284 -1.4871,0.6189 -2.7642,1.4961 -3.8312,2.6316 -1.0671,1.1355 -1.8974,2.5054 -2.4911,4.1097 -0.5936,1.6042 -0.8904,3.3916 -0.8904,5.3623 0,1.9586 0.2968,3.74 0.8904,5.3443 0.5937,1.6042 1.424,2.9741 2.4911,4.1096 1.067,1.1355 2.3441,2.0157 3.8312,2.6407 1.487,0.6249 3.1238,0.9374 4.9103,0.9374 1.8105,0 3.4593,-0.3095 4.9463,-0.9284 1.4871,-0.619 2.7642,-1.4992 3.8312,-2.6407 1.0671,-1.1415 1.8944,-2.5144 2.4821,-4.1186 0.5876,-1.6043 0.8814,-3.3857 0.8814,-5.3443 z m -1.908,0.01 c 0,1.7775 -0.2455,3.3748 -0.7366,4.7919 -0.4911,1.4171 -1.1828,2.6181 -2.0753,3.6028 -0.8925,0.9848 -1.9677,1.7383 -3.2254,2.2607 -1.2578,0.5224 -2.6533,0.7836 -4.1867,0.7836 -1.5094,0 -2.8899,-0.2612 -4.1417,-0.7836 -1.2517,-0.5224 -2.3299,-1.2759 -3.2344,-2.2607 -0.9045,-0.9847 -1.6052,-2.1857 -2.1023,-3.6028 -0.4971,-1.4171 -0.7456,-3.0144 -0.7456,-4.7919 0,-1.7895 0.2485,-3.3898 0.7456,-4.801 0.4971,-1.4111 1.1978,-2.609 2.1023,-3.5938 0.9045,-0.9847 1.9827,-1.7353 3.2344,-2.2517 1.2518,-0.5163 2.6323,-0.7745 4.1417,-0.7745 1.5334,0 2.9289,0.2582 4.1867,0.7745 1.2577,0.5164 2.3329,1.267 3.2254,2.2517 0.8925,0.9848 1.5842,2.1827 2.0753,3.5938 0.4911,1.4112 0.7366,3.0115 0.7366,4.801 z" /><path
         id="path46"
         style="fill:#ffffff;fill-opacity:1;fill-rule:evenodd;stroke:none"
         d="m 2227.7264,1956.2907 c -0.108,-0.204 -0.264,-0.306 -0.468,-0.306 -0.156,0 -0.357,0.111 -0.603,0.333 -0.246,0.222 -0.579,0.468 -0.999,0.738 -0.42,0.27 -0.945,0.519 -1.575,0.747 -0.63,0.228 -1.407,0.342 -2.331,0.342 -0.924,0 -1.737,-0.132 -2.439,-0.396 -0.702,-0.264 -1.29,-0.624 -1.764,-1.08 -0.474,-0.456 -0.834,-0.984 -1.08,-1.584 -0.246,-0.6 -0.369,-1.23 -0.369,-1.89 0,-0.864 0.183,-1.578 0.549,-2.142 0.366,-0.564 0.849,-1.044 1.449,-1.44 0.6,-0.396 1.281,-0.729 2.043,-0.999 0.762,-0.27 1.545,-0.537 2.349,-0.801 0.804,-0.264 1.587,-0.555 2.349,-0.873 0.762,-0.318 1.443,-0.717 2.043,-1.197 0.6,-0.48 1.083,-1.071 1.449,-1.773 0.366,-0.702 0.549,-1.575 0.549,-2.619 0,-1.068 -0.1828,-2.073 -0.5484,-3.015 -0.3656,-0.942 -0.896,-1.761 -1.591,-2.457 -0.6951,-0.696 -1.546,-1.245 -2.5527,-1.647 -1.0066,-0.402 -2.1572,-0.603 -3.4517,-0.603 -1.6782,0 -3.1225,0.3 -4.333,0.9 -1.2105,0.6 -2.2715,1.416 -3.1832,2.448 l 0.504,0.792 c 0.144,0.18 0.312,0.27 0.504,0.27 0.108,0 0.2458,-0.072 0.4135,-0.216 0.1676,-0.144 0.3713,-0.321 0.6111,-0.531 0.2398,-0.21 0.5275,-0.438 0.8629,-0.684 0.3354,-0.246 0.7249,-0.474 1.1683,-0.684 0.4435,-0.21 0.9528,-0.387 1.5281,-0.531 0.5752,-0.144 1.2283,-0.216 1.9591,-0.216 1.0065,0 1.9052,0.153 2.6961,0.459 0.7909,0.306 1.4589,0.723 2.0042,1.251 0.5452,0.528 0.9617,1.155 1.2493,1.881 0.2876,0.726 0.4314,1.503 0.4314,2.331 0,0.9 -0.183,1.641 -0.549,2.223 -0.366,0.582 -0.849,1.068 -1.449,1.458 -0.6,0.39 -1.281,0.717 -2.043,0.981 -0.762,0.264 -1.545,0.522 -2.349,0.774 -0.804,0.252 -1.587,0.534 -2.349,0.846 -0.762,0.312 -1.443,0.711 -2.043,1.197 -0.6,0.486 -1.083,1.092 -1.449,1.818 -0.366,0.726 -0.549,1.635 -0.549,2.727 0,0.852 0.162,1.674 0.486,2.466 0.324,0.792 0.798,1.491 1.422,2.097 0.624,0.606 1.395,1.092 2.313,1.458 0.918,0.366 1.965,0.549 3.141,0.549 1.32,0 2.505,-0.2125 3.555,-0.6373 1.05,-0.4249 2.007,-1.0705 2.871,-1.9367 z" /><path
         id="path48"
         style="fill:#ffffff;fill-opacity:1;fill-rule:evenodd;stroke:none"
         d="m 2224.6329,2016.2548 c 0.325,0 0.5959,-0.014 0.8127,-0.041 0.2167,-0.027 0.4108,-0.081 0.5824,-0.1625 0.1716,-0.081 0.3386,-0.1987 0.5011,-0.3522 0.1626,-0.1535 0.3432,-0.3567 0.5418,-0.6095 l 20.561,-26.1956 c -0.072,0.6321 -0.1219,1.2506 -0.149,1.8557 -0.027,0.605 -0.041,1.1693 -0.041,1.693 v 23.8117 h 6.4202 v -39.1714 h -3.7655 c -0.5779,0 -1.0565,0.09 -1.4357,0.2709 -0.3793,0.1806 -0.7495,0.5057 -1.1107,0.9752 l -20.4797,26.0872 c 0.054,-0.5779 0.095,-1.1513 0.1219,-1.7202 0.027,-0.5688 0.041,-1.0881 0.041,-1.5576 v -24.0555 h -6.4203 v 39.1714 h 3.8197 z m -31.8157,-18.5834 h 4.5511 c 1.3725,0 2.569,0.1716 3.5893,0.5147 1.0204,0.3432 1.8602,0.8172 2.5194,1.4222 0.6591,0.605 1.1513,1.3229 1.4763,2.1536 0.3251,0.8308 0.4877,1.7428 0.4877,2.7361 0,1.9866 -0.6547,3.5126 -1.964,4.5781 -1.3094,1.0655 -3.3095,1.5983 -6.0004,1.5983 h -4.6594 z m 0,-5.2553 v -15.3056 h -7.2871 v 39.1985 h 11.9465 c 2.6729,0 4.9619,-0.2757 6.8672,-0.8271 1.9053,-0.5513 3.4675,-1.3244 4.6865,-2.3191 1.2191,-0.9947 2.113,-2.1836 2.6819,-3.5669 0.5689,-1.3833 0.8533,-2.9065 0.8533,-4.5697 0,-1.32 -0.1941,-2.5677 -0.5824,-3.743 -0.3883,-1.1753 -0.9481,-2.2421 -1.6796,-3.2003 -0.7314,-0.9583 -1.6344,-1.7991 -2.7089,-2.5223 -1.0746,-0.7233 -2.2981,-1.3019 -3.6707,-1.7359 0.9211,-0.5237 1.7157,-1.2732 2.3839,-2.2484 l 9.8064,-14.4658 h -6.5556 c -0.6321,0 -1.1694,0.1264 -1.6119,0.3792 -0.4424,0.2528 -0.8172,0.6141 -1.1242,1.0836 l -8.2352,12.5425 c -0.307,0.4695 -0.6456,0.8036 -1.0158,1.0023 -0.3703,0.1986 -0.9166,0.298 -1.639,0.298 z m -20.1594,4.2395 c 0,2.1468 -0.2845,4.0727 -0.8533,5.7777 -0.5689,1.7049 -1.3861,3.1528 -2.4516,4.3436 -1.0656,1.1908 -2.3613,2.102 -3.8874,2.7335 -1.526,0.6315 -3.2462,0.9473 -5.1605,0.9473 -1.9144,0 -3.6391,-0.3158 -5.1741,-0.9473 -1.5351,-0.6315 -2.8399,-1.5427 -3.9145,-2.7335 -1.0745,-1.1908 -1.9008,-2.6387 -2.4787,-4.3436 -0.5779,-1.705 -0.8668,-3.6309 -0.8668,-5.7777 0,-2.1469 0.2889,-4.0728 0.8668,-5.7777 0.5779,-1.705 1.4042,-3.1483 2.4787,-4.3301 1.0746,-1.1818 2.3794,-2.0885 3.9145,-2.72 1.535,-0.6315 3.2597,-0.9473 5.1741,-0.9473 1.9143,0 3.6345,0.3158 5.1605,0.9473 1.5261,0.6315 2.8218,1.5382 3.8874,2.72 1.0655,1.1818 1.8827,2.6251 2.4516,4.3301 0.5688,1.7049 0.8533,3.6308 0.8533,5.7777 z m 7.4767,0.014 c 0,-2.8715 -0.4786,-5.5308 -1.4357,-7.9779 -0.9572,-2.447 -2.3027,-4.5645 -4.0364,-6.3525 -1.7337,-1.7879 -3.8196,-3.183 -6.2577,-4.1853 -2.438,-1.0023 -5.138,-1.5034 -8.0997,-1.5034 -2.9618,0 -5.6663,0.5011 -8.1134,1.5034 -2.4471,1.0023 -4.542,2.3974 -6.2847,4.1853 -1.7428,1.788 -3.0928,3.9055 -4.0499,6.3525 -0.9572,2.4471 -1.4358,5.1064 -1.4358,7.9779 0,2.8715 0.4786,5.5308 1.4358,7.9779 0.9571,2.4471 2.3071,4.5646 4.0499,6.3525 1.7427,1.7879 3.8376,3.183 6.2847,4.1853 2.4471,1.0023 5.1516,1.5035 8.1134,1.5035 2.9617,0 5.6617,-0.5057 8.0997,-1.517 2.4381,-1.0114 4.524,-2.4065 6.2577,-4.1854 1.7337,-1.7788 3.0792,-3.8918 4.0364,-6.3389 0.9571,-2.4471 1.4357,-5.1064 1.4357,-7.9779 z m -44.4241,-19.5857 h -7.3413 v 17.1206 h -18.3667 v -17.1206 h -7.3413 v 39.1714 h 7.3413 v -16.8496 h 18.3667 v 16.8496 h 7.3413 z m -144.3781,33.2117 v -33.1846 h -7.2871 v 33.1846 h -11.8381 v 6.0139 h 60.9698 v -6.0139 h -11.7839 v -33.1846 h -7.2871 v 33.1846 z m 84.9581,-12.6237 h 4.5511 c 1.3725,0 2.569,0.1716 3.5893,0.5147 1.0204,0.3432 1.8602,0.8172 2.5194,1.4222 0.6592,0.605 1.1513,1.3229 1.4764,2.1536 0.325,0.8308 0.4876,1.7428 0.4876,2.7361 0,1.9866 -0.6547,3.5126 -1.964,4.5781 -1.3094,1.0655 -3.3095,1.5983 -6.0004,1.5983 h -4.6594 z m 0,-5.2553 v -15.3056 h -7.287 v 39.1985 h 11.9464 c 2.6729,0 4.9619,-0.2757 6.8672,-0.8271 1.9053,-0.5513 3.4675,-1.3244 4.6865,-2.3191 1.2191,-0.9947 2.113,-2.1836 2.6819,-3.5669 0.5689,-1.3833 0.8533,-2.9065 0.8533,-4.5697 0,-1.32 -0.1941,-2.5677 -0.5824,-3.743 -0.3883,-1.1753 -0.9481,-2.2421 -1.6796,-3.2003 -0.7314,-0.9583 -1.6344,-1.7991 -2.7089,-2.5223 -1.0746,-0.7233 -2.2981,-1.3019 -3.6706,-1.7359 0.921,-0.5237 1.7156,-1.2732 2.3838,-2.2484 l 9.8064,-14.4658 h -6.5556 c -0.6321,0 -1.1694,0.1264 -1.6119,0.3792 -0.4424,0.2528 -0.8172,0.6141 -1.1242,1.0836 l -8.2352,12.5425 c -0.307,0.4695 -0.6456,0.8036 -1.0158,1.0023 -0.3703,0.1986 -0.9166,0.298 -1.639,0.298 z m -13.7845,23.8387 v -5.7971 h -17.3644 v -10.8358 h 13.6802 v -5.6346 h -13.6802 v -11.0526 h 17.3644 v -5.8513 h -24.7057 v 39.1714 z m -112.572,-24.4076 h 12.4883 l -4.7678,13.03 c -0.2167,0.578 -0.456,1.2597 -0.7178,2.0453 -0.2619,0.7856 -0.5192,1.6389 -0.7721,2.56 -0.2528,-0.9211 -0.5011,-1.7789 -0.7449,-2.5735 -0.2439,-0.7947 -0.4831,-1.49 -0.7179,-2.0859 z m 25.3558,-14.7638 h -5.6346 c -0.6321,0 -1.1513,0.158 -1.5576,0.474 -0.4064,0.3161 -0.6998,0.7089 -0.8804,1.1784 l -2.9257,7.9915 h -16.2266 l -2.9257,-7.9915 c -0.1445,-0.4153 -0.4289,-0.7946 -0.8533,-1.1377 -0.4244,-0.3432 -0.9437,-0.5147 -1.5577,-0.5147 h -5.6617 l 15.3869,39.1714 h 7.4496 z m -65.1358,16.2537 c 0.307,-0.5779 0.5914,-1.1784 0.8533,-1.8015 0.2618,-0.623 0.5192,-1.2506 0.772,-1.8827 0.2529,0.6502 0.5147,1.2913 0.7856,1.9234 0.2709,0.6321 0.5599,1.2371 0.8669,1.815 l 11.5943,21.6987 c 0.1445,0.2709 0.2935,0.4876 0.447,0.6502 0.1535,0.1625 0.3251,0.2799 0.5147,0.3521 0.1896,0.072 0.4018,0.1174 0.6366,0.1355 0.2348,0.018 0.5147,0.027 0.8398,0.027 h 5.4991 v -39.1714 h -6.4202 v 25.3016 c 0,0.4696 0.014,0.9843 0.041,1.5441 0.027,0.5599 0.068,1.1287 0.1219,1.7067 l -11.8382,-22.2135 c -0.2709,-0.5056 -0.623,-0.8984 -1.0565,-1.1784 -0.4334,-0.2799 -0.9391,-0.4199 -1.517,-0.4199 h -1.0023 c -0.5779,0 -1.0836,0.14 -1.517,0.4199 -0.4334,0.28 -0.7856,0.6728 -1.0565,1.1784 l -12.0007,22.2947 c 0.072,-0.596 0.1219,-1.1784 0.149,-1.7473 0.027,-0.5688 0.041,-1.0971 0.041,-1.5847 v -25.3016 h -6.4203 v 39.1714 h 5.4992 c 0.3251,0 0.605,-0.01 0.8398,-0.027 0.2348,-0.018 0.447,-0.063 0.6366,-0.1355 0.1896,-0.072 0.3657,-0.1896 0.5282,-0.3521 0.1626,-0.1626 0.3161,-0.3793 0.4606,-0.6502 l 11.7027,-21.7529 z" /></g></g></svg>